# xmcd CD database file
#
# Track frame offsets:
#	150
#	14830
#	27445
#	42521
#	57493
#	67322
#	79498
#	93634
#	104709
#	110656
#	129328
#
# Disc length: 1884 seconds
#
# Revision: 0
# Processed by: cddbd v1.5.2PL0 Copyright (c) Steve Scherf et al.
# Submitted via: CDex 1.78
#
DISCID=ad075a0b
DTITLE=Accordi Disaccordi - Bouncing Vibes
DYEAR=2013
DGENRE=Jazz
TTITLE0=Bistro Fada (Stephane Wrembel)
TTITLE1=Gipsy Sun (Accordi Disaccordi)
TTITLE2=Limehouse Blues (Phil Braham)
TTITLE3=Made in France (Bireli Lagrene)
TTITLE4=Tu vuo' fa' l'Americano (Renato Carosone)
TTITLE5=Sweet Georgia Brown (Ben Bernie, Maceo Pinkard)
TTITLE6=Goodnight Moon (Ambrosia Parsley)
TTITLE7=Minor Swing (Reinhardt, Grappelli)
TTITLE8=Antonio's Swing (Accordi Disaccordi)
TTITLE9=Starman (David Bowie)
TTITLE10=La Dolce Vita (Nino Rota)
EXTD=YEAR: 2013
EXTT0=
EXTT1=
EXTT2=
EXTT3=
EXTT4=
EXTT5=
EXTT6=
EXTT7=
EXTT8=
EXTT9=
EXTT10=
PLAYORDER=
